<svg xmlns="http://www.w3.org/2000/svg" width="29" height="29" viewBox="0 0 29 29"><defs><style>.a{fill:#fff;}</style></defs><path class="a" d="M14.428,38.89a7.435,7.435,0,1,0,7.434,7.435A7.423,7.423,0,0,0,14.428,38.89Zm0,12.269a4.834,4.834,0,1,1,4.833-4.834,4.842,4.842,0,0,1-4.833,4.834ZM23.9,38.586a1.734,1.734,0,1,1-1.734-1.734A1.73,1.73,0,0,1,23.9,38.586Zm4.923,1.76a8.583,8.583,0,0,0-2.342-6.076,8.636,8.636,0,0,0-6.075-2.343c-2.394-.136-9.569-.136-11.962,0a8.623,8.623,0,0,0-6.075,2.336A8.611,8.611,0,0,0,.027,40.339c-.136,2.394-.136,9.571,0,11.965a8.583,8.583,0,0,0,2.342,6.076,8.647,8.647,0,0,0,6.075,2.343c2.394.136,9.569.136,11.962,0a8.579,8.579,0,0,0,6.075-2.343A8.64,8.64,0,0,0,28.823,52.3C28.959,49.91,28.959,42.74,28.823,40.346ZM25.731,54.873a4.893,4.893,0,0,1-2.756,2.757c-1.909.757-6.437.582-8.546.582s-6.644.168-8.546-.582a4.893,4.893,0,0,1-2.756-2.757c-.757-1.909-.582-6.439-.582-8.548s-.168-6.646.582-8.548A4.893,4.893,0,0,1,5.882,35.02c1.909-.757,6.437-.582,8.546-.582s6.644-.168,8.546.582a4.893,4.893,0,0,1,2.756,2.757c.757,1.909.582,6.439.582,8.548S26.488,52.971,25.731,54.873Z" transform="translate(0.075 -31.825)"/></svg>