<svg xmlns="http://www.w3.org/2000/svg" width="29" height="21.75" viewBox="0 0 29 21.75"><defs><style>.a{fill:#fff;}</style></defs><path class="a" d="M26.281,21.75H2.719A2.722,2.722,0,0,1,0,19.031V7.454a.336.336,0,0,1,.339-.34.34.34,0,0,1,.21.074c1.264.981,2.892,2.195,8.729,6.435.181.132.384.288.6.454,1.226.946,2.906,2.242,4.6,2.242h.047c1.7,0,3.455-1.353,4.613-2.249.212-.164.412-.318.588-.447,5.61-4.076,7.394-5.408,8.723-6.44a.327.327,0,0,1,.205-.073A.342.342,0,0,1,29,7.448V19.031A2.722,2.722,0,0,1,26.281,21.75ZM14.526,14.5h-.053c-1.086,0-2.578-1.153-3.565-1.915-.207-.16-.4-.311-.566-.429C3.385,7.106,2.393,6.33.892,5.155l-.371-.29A1.359,1.359,0,0,1,0,3.8V2.719A2.722,2.722,0,0,1,2.719,0H26.281A2.722,2.722,0,0,1,29,2.719V3.8a1.362,1.362,0,0,1-.521,1.07l-.292.229c-1.528,1.2-2.45,1.923-9.53,7.061-.164.119-.359.27-.566.429C17.1,13.347,15.612,14.5,14.526,14.5Z"/></svg>