<svg xmlns="http://www.w3.org/2000/svg" width="29" height="29" viewBox="0 0 29 29"><defs><style>.a{fill:#fff;}</style></defs><path class="a" d="M26.019,55.309c.018.317.018.634.018.952,0,9.674-5.98,20.821-16.911,20.821A14.6,14.6,0,0,1,0,73.8a10.01,10.01,0,0,0,1.435.091,10.578,10.578,0,0,0,7.379-3.127c-2.613-.068-4.8-2.175-5.557-5.075a6.124,6.124,0,0,0,1.123.113,5.181,5.181,0,0,0,1.564-.249c-2.723-.68-4.766-3.625-4.766-7.182v-.091a5.17,5.17,0,0,0,2.687.929,7.873,7.873,0,0,1-2.65-6.095,8.582,8.582,0,0,1,.81-3.693c2.926,4.441,7.324,7.341,12.255,7.658a10.1,10.1,0,0,1-.147-1.677c0-4.033,2.65-7.318,5.944-7.318a5.481,5.481,0,0,1,4.343,2.311,10.475,10.475,0,0,0,3.772-1.767,7.224,7.224,0,0,1-2.613,4.033A10.211,10.211,0,0,0,29,51.526,14.769,14.769,0,0,1,26.019,55.309Z" transform="translate(0 -48.082)"/></svg>